<?xml version="1.0" encoding="utf-8"?>
<!-- Generator: Adobe Illustrator 21.1.0, SVG Export Plug-In . SVG Version: 6.00 Build 0)  -->
<svg version="1.1" xmlns="http://www.w3.org/2000/svg" xmlns:xlink="http://www.w3.org/1999/xlink" x="0px" y="0px"
	 viewBox="0 0 180 157" style="enable-background:new 0 0 180 157;" xml:space="preserve">
<style type="text/css">
	.st0{fill:#3D3D3D;}
	.st1{fill:#1C1C1C;}
	.st2{fill:none;stroke:#1C1C1C;stroke-width:2;stroke-miterlimit:10;}
	.st3{fill:#002828;}
	.st4{fill:#DC7945;}
	.st5{fill:#C86E3F;}
	.st6{fill:#CB6E3E;}
	.st7{display:none;fill:#75C620;}
	.st8{fill:#C76D3D;}
	.st9{fill:#FFFFFF;}
	.st10{fill:#00387C;}
	.st11{fill:#5E5E5E;}
	.st12{fill:#6D0051;}
	.st13{fill:#7A0055;}
	.st14{display:none;}
	.st15{fill:#2D2D2D;}
	.st16{fill:#4A71FF;}
	.st17{fill:#0063CE;}
</style>
<g id="chair">
	<path class="st0" d="M117,110H73c-3.8,0-7-3.1-7-7v0c0-3.8,3.1-7,7-7h44c3.8,0,7,3.1,7,7v0C124,106.9,120.9,110,117,110z"/>
	<path class="st0" d="M72.4,93h45.2c3.5,0,6.4-2.9,6.4-6.4V39.4c0-3.5-2.9-6.4-6.4-6.4H72.4c-3.5,0-6.4,2.9-6.4,6.4v47.2
		C66,90.1,68.9,93,72.4,93z"/>
	<rect x="95" y="110" class="st1" width="2" height="34"/>
	<path class="st2" d="M79,146l6.3-5.9c6.1-5.7,15.5-5.8,21.7-0.3l7,6.2"/>
	<circle class="st3" cx="96" cy="146" r="3"/>
	<circle class="st3" cx="79" cy="146" r="3"/>
	<circle class="st3" cx="114" cy="146" r="3"/>
</g>
<g id="man">
	<g id="face">
		<g id="Слой_27">
			<path class="st4" d="M100.7,45H88.9c0.3-0.7,0.6-1.4,0.9-2.1c0.7-2.1,1.2-4.3,1.2-6.4c2.3,1.4,3.9,1.8,3.9,1.8s1.6-0.4,3.9-1.8
				v0.1c0,0.2,0,0.3,0,0.5c0.1,2.7,0.7,5.3,1.8,7.7L100.7,45z"/>
			<g id="Слой_28">
				<path class="st5" d="M99,35l-0.3,1.6c0,0.2,0,0.3,0,0.5c-3.4,6.3-9.9,8-9.9,8c0.3-0.7,0.6-1.4,0.9-2.1c0.7-2.1,1.2-4.3,1.2-6.4
					c0-0.2,0-0.3,0-0.4C90.5,35.7,99.6,33.6,99,35z"/>
			</g>
		</g>
		<g id="head">
			<g>
				<g>
					<path class="st4" d="M98.7,30.6v5.4c0,0-0.1,0-0.1,0.1v0c-0.2,0.1-0.3,0.2-0.5,0.3L96,37.1l-1.1,0.3v-6.8H98.7z"/>
					<path class="st4" d="M105.7,28c0.1,1-0.6,2.1-1.2,2.9c-1.9,2.4-3.9,4.1-5.7,5.2c0,0-0.1,0-0.1,0.1v0c-0.2,0.1-0.3,0.2-0.5,0.3
						L96,37.1l-1.1,0.3l-0.2,0.1l-0.2-0.1c-0.8-0.3-1.2-1-1.1-1.8l0.6-4.8c0-0.1,0-0.1,0-0.2V2.9l1,0.5l1,0.5l9.4,4.8
						c0.6,0.3,1,1,0.9,1.7C105.8,17.7,105.3,25,105.7,28z"/>
				</g>
				<g>
					<path class="st4" d="M95.1,37.4L95.1,37.4c-0.3,0.1-0.5,0.1-0.8,0l-1.1-0.4l-1.5-0.5c-0.1,0-0.2-0.1-0.2-0.1
						c-0.5-0.3-1-0.7-1.6-1.1c-1.4-1.1-3-2.5-4.4-4.4c-0.6-0.8-1.3-1.8-1.2-2.9c0.3-3-0.1-10.5-0.6-18c0-0.5,0.2-1,0.7-1.2l9.6-4.9
						l1-0.5l1-0.5v27.8l0.1,5.5C96,36.7,95.6,37.2,95.1,37.4z"/>
				</g>
			</g>
		</g>
		<path class="st6" d="M92.6,32.5l1.3,1c0.6,0.4,1.3,0.4,1.9,0l1.3-1l-1.4,0.7c-0.5,0.3-1.2,0.3-1.7,0L92.6,32.5z"/>
		<g id="Слой_25">
			<g id="Слой_25_2_">
				<g>
					<rect x="94.9" y="-69" class="st7" width="16" height="89"/>
					<g>
						<path class="st4" d="M105.7,20.6c0,0,1.1-1.1,2.9,0.6c0,0,1.1,1.7-1.1,3.4c0,0-0.2,0.3-1.5,0.4
							C104.6,25.1,105.7,20.6,105.7,20.6z"/>
						<g>
							<path class="st8" d="M108,22.8c0,0,0-1.7-1.7-1.7C106.3,21.1,107.4,21.1,108,22.8z"/>
						</g>
					</g>
					<g>
						<path d="M102.3,20.6c0,0,0.6,2.3-1.1,2.3c-1.7,0-1.7-1.7-1.7-1.7s0.6-1.1,1.7-1.1S102.3,20.6,102.3,20.6z"/>
						<g>
							<circle class="st9" cx="100.9" cy="21.4" r="0.3"/>
						</g>
					</g>
					<g>
						<path d="M104,17.8c-0.9-0.6-2.8-1.6-5.8-1.3c-0.2,0-0.4,0.3-0.3,0.5c0,0.1,0.1,0.2,0.2,0.4c0.1,0.2,0.4,0.3,0.6,0.3
							c0.9-0.1,3.4-0.3,5.2,0.3C104,18,104.1,17.9,104,17.8z"/>
					</g>
				</g>
				<g>
					<rect x="78.9" y="-69" class="st7" width="16" height="89"/>
					<g>
						<path class="st4" d="M84,20.6c0,0-1.1-1.1-2.9,0.6c0,0-1.1,1.7,1.1,3.4c0,0,0.2,0.3,1.5,0.4C85.2,25.1,84,20.6,84,20.6z"/>
						<g>
							<path class="st8" d="M81.7,22.8c0,0,0-1.7,1.7-1.7C83.5,21.1,82.3,21.1,81.7,22.8z"/>
						</g>
					</g>
					<g>
						<path d="M87.4,20.6c0,0-0.6,2.3,1.1,2.3c1.7,0,1.7-1.7,1.7-1.7S89.7,20,88.6,20S87.4,20.6,87.4,20.6z"/>
						<g>
							<circle class="st9" cx="88.9" cy="21.4" r="0.3"/>
						</g>
					</g>
					<g>
						<path d="M85.8,17.8c0.9-0.6,2.8-1.6,5.8-1.3c0.2,0,0.4,0.3,0.3,0.5c0,0.1-0.1,0.2-0.2,0.4c-0.1,0.2-0.4,0.3-0.6,0.3
							c-0.9-0.1-3.4-0.3-5.2,0.3C85.7,18,85.7,17.9,85.8,17.8z"/>
					</g>
				</g>
			</g>
		</g>
		<g id="Слой_22">
			<path d="M85,25c0,0-1.3-4.6-2-9c-1-6-1-6.4-0.9-6.7l4-7.7C86.3,1.3,86.6,1,87,1c1.1-0.3,4.3-0.6,13.1,0.2c0.2,0,0.4,0.1,0.5,0.2
				l3,1.8c0.4,0.2,0.6,0.6,0.6,1.1v0c0,0.3,0.1,0.5,0.2,0.7l3.3,4.9c0.2,0.3,0.3,0.7,0.2,1c-0.6,2.3-2.1,10.3-2.6,14.3
				c0,0-0.6-2.9,0-6.8c0.4-3.2,0.2-4.9,0.1-5.9c0-0.2-0.1-0.5-0.3-0.7c-0.6-0.7-2.3-2.6-3.7-2.6c-1.6,0-2.2-1.1-16.1,3.8
				c-0.4,0.1-0.7,0.5-0.8,0.9C84.3,15.1,85.3,24.5,85,25z"/>
		</g>
		<g id="Слой_24">
			<path class="st9" d="M97.7,30.3c-0.3,1.3-1.4,2.3-2.8,2.3s-2.5-1-2.8-2.3H97.7z"/>
		</g>
		<g id="Слой_26">
		</g>
		<path id="nose_1_" class="st5" d="M96.6,26.8c0,0-1.1,1.1-2.9,0.6C92,26.8,94.3,24,94.3,24s1.1-1.1,1.1,0.6c0,1.8,1.1,1.7,1.1,1.7
			S97.1,26.3,96.6,26.8z"/>
	</g>
	<g>
		<path class="st10" d="M96,96h16c0,0-3-39-9-46l4-6h-4l-3,5l-4-4V96z"/>
		<path class="st10" d="M96,96H80c0,0,4-39,10-46l-3-5l2-1l3,5l4-4V96z"/>
	</g>
	<g>
		<path class="st11" d="M105.5,93h1c3.6,0,6.5,2.9,6.5,6.5V152H99V99.5C99,95.9,101.9,93,105.5,93z"/>
		<path d="M97,152c0-4.5,4-8.1,9-8.1s9,3.6,9,8.1H97z"/>
	</g>
	<g>
		<path class="st11" d="M86.5,93h1c3.6,0,6.5,2.9,6.5,6.5V152H80V99.5C80,95.9,82.9,93,86.5,93z"/>
		<path d="M78,152c0-4.5,4-8.1,9-8.1s9,3.6,9,8.1H78z"/>
	</g>
	<path class="st4" d="M92.5,80.1l-6.7,0.6c-0.8,0.1-1.6-0.5-1.6-1.4l-0.3-3.5c-0.1-0.8,0.5-1.6,1.4-1.6l6.7-0.6
		c0.8-0.1,1.6,0.5,1.6,1.4l0.3,3.5C93.9,79.3,93.3,80.1,92.5,80.1z"/>
	<g id="tie">
		<g id="Слой_12">
			<path class="st12" d="M97.6,48L99,66.6c0.1,0.8,0,1.5-0.3,2.2l-2.3,6.1c-0.1,0.3-0.3,0.2-0.4,0l-1.8-6.3c-0.1-0.5-0.2-1-0.2-1.5
				l0.7-19H97.6z"/>
		</g>
		<path class="st13" d="M97,45l1.6,3.2c0.2,0.5,0.1,1-0.3,1.3l-1.7,1.1c-0.3,0.2-0.8,0.2-1.1,0l-1.7-1.1c-0.4-0.3-0.6-0.8-0.3-1.3
			L95,45H97z"/>
	</g>
	<path class="st9" d="M102.6,51.1c1,2.1,2.9,7.6,4.4,19.9c0,0-8.1,1.8-14.1,2c-0.5,0-0.8,0.4-0.7,0.9l1,5.9c0.1,0.4,0.4,0.7,0.8,0.6
		c3.7-0.3,21.3-1.7,23-3.4c1.7-1.7-2.3-21.8-3.6-28.1c-0.3-1.4-1.1-2.7-2.3-3.6c-2.4-1.7-6.4-3.3-8.6,3.1
		C102.2,49.3,102.2,50.3,102.6,51.1z"/>
	<g id="Слой_10">
		<polygon class="st9" points="103,44 100,42 96,45 100,49 		"/>
	</g>
	<g id="Слой_16" class="st14">
	</g>
	<g id="line">
	</g>
	<path class="st9" d="M87,67c0,0-5,13-13,13.5S73,69,73,69L87,67z"/>
	<path class="st4" d="M73.5,81h-1c-1.9,0-3.5-1.6-3.5-3.5l0,0c0-1.9,1.6-3.5,3.5-3.5h1c1.9,0,3.5,1.6,3.5,3.5l0,0
		C77,79.4,75.4,81,73.5,81z"/>
</g>
<g id="monitor">
	<g>
		<polygon points="73,81 56,81 56,78 58.1,78 73,78 		"/>
	</g>
	<g id="Слой_14">
	</g>
	<path class="st1" d="M91,74H37c-2.2,0-4-1.8-4-4V42c0-2.2,1.8-4,4-4h54c2.2,0,4,1.8,4,4v28C95,72.2,93.2,74,91,74z"/>
	<polygon class="st15" points="59,78 62,58 66,58 69,78 	"/>
	<g id="Слой_15">
	</g>
</g>
<g id="table">
	<g id="Слой_3">
		<rect x="0.5" y="80.5" class="st16" width="179" height="11"/>
	</g>
	<g id="Слой_4__x28_копия2_x29_">
		<rect x="10" y="93" class="st17" width="50" height="20"/>
	</g>
	<g id="Слой_4__x28_копия_x29_">
		<rect x="10" y="137" class="st17" width="50" height="20"/>
	</g>
	<g id="Слой_4">
		<rect x="10" y="115" class="st17" width="50" height="20"/>
	</g>
	<g id="Слой_7">
		<rect x="160" y="93" class="st16" width="9" height="64"/>
	</g>
	<path d="M97,152"/>
</g>
</svg>
