<?xml version="1.0" encoding="utf-8"?>
<!-- Generator: Adobe Illustrator 21.1.0, SVG Export Plug-In . SVG Version: 6.00 Build 0)  -->
<svg version="1.1" xmlns="http://www.w3.org/2000/svg" xmlns:xlink="http://www.w3.org/1999/xlink" x="0px" y="0px"
	 viewBox="0 0 148 148" style="enable-background:new 0 0 148 148;" xml:space="preserve">
<style type="text/css">
	.st0{fill:#FFFFFF;stroke:#000000;stroke-width:2;stroke-miterlimit:10;}
	.st1{fill:#A87660;stroke:#000000;stroke-miterlimit:10;}
	.st2{fill:#FFB91D;stroke:#000000;stroke-width:2;stroke-miterlimit:10;}
	.st3{fill:#AC7154;stroke:#000000;stroke-miterlimit:10;}
	.st4{fill:#6F00FF;stroke:#000000;stroke-width:2;stroke-miterlimit:10;}
	.st5{fill:none;stroke:#000000;stroke-width:2;stroke-miterlimit:10;}
	.st6{fill:#AC7154;stroke:#000000;stroke-width:2;stroke-miterlimit:10;}
	.st7{stroke:#000000;stroke-miterlimit:10;}
	.st8{fill:none;stroke:#303030;stroke-miterlimit:10;}
	.st9{fill:none;stroke:#000000;stroke-miterlimit:10;}
	.st10{display:none;}
	.st11{display:inline;fill:none;stroke:#000000;stroke-miterlimit:10;}
	.st12{fill:none;stroke:#3A3A3A;stroke-miterlimit:10;}
	.st13{fill:#6B6B6B;stroke:#6B6B6B;stroke-miterlimit:10;}
</style>
<g id="Слой_16__x28_копия_x29_">
	<path class="st0" d="M146,74c0,19.7-7.9,37.6-20.8,50.6c-12.8,12.9-30.4,21-49.9,21.4c-0.4,0-0.9,0-1.3,0c-19.4,0-37.1-7.7-50-20.2
		C10.4,112.7,2,94.3,2,74C2,34.2,34.2,2,74,2S146,34.2,146,74z"/>
</g>
<g id="Слой_9">
	<g id="Слой_15">
		<ellipse class="st1" cx="45" cy="63" rx="3.5" ry="5.5"/>
		<ellipse class="st1" cx="104" cy="63" rx="3.5" ry="5.5"/>
	</g>
	<g id="Слой_12">
		<g id="Слой_16">
			<path class="st2" d="M130,87c0,15.1-6.1,28.8-15.9,38.7c-9.8,9.9-23.2,16-38.1,16.3c-0.3,0-0.7,0-1,0c-14.8,0-28.3-5.9-38.2-15.4
				C26.4,116.6,20,102.5,20,87c0-30.4,24.6-55,55-55S130,56.6,130,87z"/>
		</g>
		<g id="Слой_21">
		</g>
		<rect x="67.5" y="90.5" class="st3" width="14" height="26"/>
		<g>
			<g>
				<path class="st4" d="M114.1,125.7c-9.8,9.9-23.2,16-38.1,16.3v-30c0,0,5-1,6-5V94l-6-1v-2c0,0,25,3,26,17
					C102,108,112.2,112.8,114.1,125.7z"/>
			</g>
			<g>
				<path class="st4" d="M69,94v13c1,4,6,5,6,5v30c-14.8,0-28.3-5.9-38.2-15.4C38.3,113,49,108,49,108c1-14,26-17,26-17v2L69,94z"/>
			</g>
		</g>
	</g>
	<g id="Слой_13">
		<g id="Слой_13_1_">
			<g>
				<path class="st5" d="M92.4,99.5c0,0-4.2,3-3.2,13c0,0-1.1,6-13.8,6"/>
				<path class="st5" d="M103,108.5c0,0-8.5,0.1-13.2-4.5"/>
			</g>
			<g>
				<path class="st5" d="M58.6,99.5c0,0,4.2,3,3.2,13c0,0,1.1,6,13.8,6"/>
				<path class="st5" d="M48,108.5c0,0,8.5,0.1,13.2-4.5"/>
			</g>
		</g>
	</g>
	<path class="st6" d="M74.5,96.5L74.5,96.5c-16,0-29-13-29-29v-18c0-15.9,13-29,29-29h0c15.9,0,29,13,29,29v18
		C103.5,83.5,90.5,96.5,74.5,96.5z"/>
	<g id="Слой_11">
		<path class="st7" d="M45.7,57.5c0,0-8.3-14,0-24c0,0-1-8,7.2-9c0,0,2.1-7,9.3-8c0,0,4.1-2,8.8,4c0,0,8.8-7,14-3
			c5.2,4,4.1,6.6,4.1,6.6s10.4-2.6,13.5,5.4c0,0,2.9,5.5-0.1,9.3v0c3.2,2.9,4.3,7.3,2.8,11.3l-1.7,7.5c0,0-13.5-16-29-16
			S45.7,57.5,45.7,57.5z"/>
	</g>
	<g id="Слой_17">
		<path class="st8" d="M54.4,32.8L54.4,32.8c1.2-3.8,5.4-5.7,9.1-4.2l0,0"/>
	</g>
	<g id="Слой_17__x28_копия_x29_">
		<path class="st8" d="M90.9,41.2L90.9,41.2c3.9-0.6,7.5,2.3,7.8,6.2v0"/>
	</g>
	<g id="Слой_17__x28_копия2_x29_">
		<path class="st8" d="M73.4,25.5L73.4,25.5c3.2-2.3,7.7-1.4,9.8,1.9l0,0"/>
	</g>
	<g id="Слой_17__x28_копия3_x29_">
		<path class="st8" d="M80.1,38L80.1,38c1.7-3.6,6.1-4.9,9.5-3l0,0"/>
	</g>
	<g id="Слой_17__x28_копия4_x29_">
		<path class="st8" d="M50.7,43.8L50.7,43.8c0.9-3.8,4.9-6.1,8.7-4.9l0,0"/>
	</g>
</g>
<g id="Слой_22">
	<path class="st0" d="M81.5,78c0,3.6-3.1,6.5-7,6.5s-7-2.9-7-6.5H81.5z"/>
	<line class="st9" x1="73" y1="89.5" x2="76" y2="89.5"/>
	<path class="st5" d="M68.5,69.5l1.1,1.1c2.7,2.7,7.1,2.7,9.9,0l1.1-1.1"/>
</g>
<g id="Слой_7">
	<g>
		<g>
			<g>
				<circle class="st7" cx="85" cy="62" r="2"/>
			</g>
			<g>
				<path class="st5" d="M92,58c0,0-2-4-9-3"/>
			</g>
			<g class="st10">
				<rect x="-0.5" y="-1.5" class="st11" width="148" height="148"/>
			</g>
		</g>
	</g>
	<g>
		<g>
			<g>
				<circle class="st7" cx="62" cy="62" r="2"/>
			</g>
			<g>
				<path class="st5" d="M55,58c0,0,2-4,9-3"/>
			</g>
			<g class="st10">
				<rect x="-0.5" y="-1.5" class="st11" width="148" height="148"/>
			</g>
		</g>
	</g>
</g>
<g id="Слой_10">
	<line class="st12" x1="70.5" y1="115" x2="70.5" y2="127"/>
	<path class="st13" d="M71.5,129.5c0,1.1-0.4,1-1,1s-1,0.1-1-1s0.4-3,1-3S71.5,128.4,71.5,129.5z"/>
	<line class="st12" x1="80.5" y1="115" x2="80.5" y2="129.5"/>
	<path class="st13" d="M81.5,132.5c0,1.1-0.4,1-1,1s-1,0.1-1-1s0.4-3,1-3S81.5,131.4,81.5,132.5z"/>
</g>
</svg>
