<?xml version="1.0" encoding="utf-8"?>
<!-- Generator: Adobe Illustrator 21.1.0, SVG Export Plug-In . SVG Version: 6.00 Build 0)  -->
<svg version="1.1" id="Capa_1" xmlns="http://www.w3.org/2000/svg" xmlns:xlink="http://www.w3.org/1999/xlink" x="0px" y="0px"
	 viewBox="0 0 512 512" style="enable-background:new 0 0 512 512;" xml:space="preserve">
<style type="text/css">
	.st0{fill:#006DF0;}
	.st1{fill:#933EC5;}
</style>
<g>
	<path class="st0" d="M452.2,179.2c0-61.2-30.9-115.2-77.8-147.6l0-0.1l-1.2-0.8c0,0-0.1,0-0.1-0.1l-1.9-1.3
		c-3.9-2.5-7.8-4.9-11.8-7.1c-1.4-0.8-2.9-1.5-4.3-2.2c-3.2-1.6-6.4-3.2-9.7-4.7c-1.8-0.8-3.6-1.6-5.5-2.3
		c-3.4-1.4-6.8-2.6-10.2-3.8c-1.5-0.5-3-1.1-4.5-1.5c-4.8-1.5-9.8-2.7-14.7-3.8c-1.5-0.3-2.9-0.5-4.4-0.8c-3.9-0.7-7.9-1.3-11.9-1.8
		c-1.6-0.2-3.2-0.4-4.8-0.5C283.9,0.3,278.5,0,273,0c-5.5,0-11,0.3-16.4,0.8C255,1,253.5,1.2,252,1.3c-4.2,0.5-8.3,1.1-12.4,1.9
		c-1.3,0.2-2.7,0.5-4,0.7c-10.6,2.3-21,5.5-31,9.7c-1,0.4-2.1,0.9-3.1,1.3c-4.1,1.8-8.2,3.8-12.2,5.9c-0.9,0.5-1.7,0.9-2.6,1.3
		c-4.9,2.7-9.7,5.5-14.4,8.7l-3.7,2.5l0,0.3c-5.6,4-10.9,8.4-16,13l-24.5-24.5l-6,6c-40.2,40.2-62.4,93.8-62.4,150.9
		s22.2,110.6,62.4,150.9c38.2,38.2,88.5,60.1,142.4,62.2v77.1h-85.3V512H367v-42.7h-85.3v-77.1c53.8-2.1,104-24,142.2-62.2l6-6
		l-24.5-24.5C434.4,267.7,452.2,225.5,452.2,179.2z M185.6,42.9c7.4-4.8,15.2-9,23.4-12.6c0.8-0.3,1.6-0.7,2.4-1
		c3.9-1.6,7.9-3.1,11.9-4.4c0.7-0.2,1.5-0.5,2.2-0.7c4.7-1.4,9.4-2.7,14.2-3.7c0.8-0.2,1.5-0.3,2.3-0.4c4-0.8,8.1-1.4,12.2-1.9
		c1.3-0.2,2.6-0.3,3.9-0.4c4.9-0.4,9.8-0.8,14.8-0.8c4.9,0,9.8,0.3,14.6,0.7c1.2,0.1,2.5,0.2,3.7,0.4c4.7,0.5,9.3,1.2,13.8,2.1
		c0.8,0.2,1.6,0.4,2.4,0.6c3.8,0.8,7.5,1.8,11.2,2.9c1.4,0.4,2.9,0.9,4.3,1.3c4.2,1.4,8.3,2.8,12.3,4.5c1.1,0.4,2.1,1,3.1,1.4
		c3.2,1.4,6.3,2.9,9.3,4.5c1.5,0.8,2.9,1.5,4.3,2.3c0.7,0.4,1.4,0.8,2.1,1.2c-26.6,9.6-41.8,20.9-59.1,43.4c-1,1.3-1.9,2.8-2.5,4.4
		c-0.9-1-1.9-1.8-3.1-2.5c-6.1-4-14.1-3.8-23.8,0.4l-1.3,0.1c-11.9,1.3-20.5,2.3-21.2,17.3c-0.3,7.4,3.6,14.8,10.1,18.7
		c1.2,0.8,2.5,1.3,3.8,1.8c0.2,0.3,0.3,0.6,0.5,0.9l2,2.9c-4.2-1.2-8.4-1.7-12.4-2.3c-5.1-0.7-10-1.5-14.8-3.3
		c-18.3-7-31.9-37.9-41.8-60.5c-1.9-4.3-3.7-8.4-5.5-12.7C185.5,46,185.6,44.4,185.6,42.9z M306.1,229.7
		c-16-13.3-22.1-32.4-15.4-48.8c3.4-8.4,0-17.7-8.2-22.6c-0.3-1.1-0.6-3.3-0.8-4.8c-0.6-4.4-1.3-9.7-3.9-14.7c1.4,1,3,1.8,4.7,2.4
		c1.5,0.5,2,0.9,2.2,1.6c2.1,7.3,7,12.8,13.5,14.9c6.2,2,13,0.8,18.7-3.5c1.7-1.3,2-1.5,8.5,1.6c4.5,2.2,10,4.8,17.7,5.7
		c4.5,4.8,8.1,10.8,11.6,16.7c5.4,9.1,10.9,18.6,20.4,23.5c3.1,1.6,1.2,11.8-5.8,30.1c-0.6,1.7-1.2,3.3-1.8,4.7
		c-8.9,7-14.3,14.8-19.6,22.3c-4.8,6.9-9.4,13.5-16.7,19.8c-11.3,9.7-20.4,15.3-32.1,18.7C311.1,275.7,324.9,245.3,306.1,229.7z
		 M268.8,103.1l-5.8,3.4c0,0,0,0,0,0c-0.2,0-0.7-0.2-1.3-0.8c-0.8-0.8-1.2-1.8-1.2-2.7c0-0.2,0-0.3,0-0.4c1.6-0.2,3.8-0.5,6-0.7
		l4-0.5l1.3-0.6c6.4-3,8.6-2.2,8.6-2.2c0,0,1.8,1.8,1.6,9.8l-0.1,2.7c-1.6-0.6-3.7-1.1-6.4-1.3c-0.4-0.7-0.9-1.3-1.5-2L268.8,103.1z
		 M272.6,132.3c-1.3-1-2.6-1.9-3.7-2.4c-1.6-0.8-3.1-1.4-4.7-2l2.5-0.4c1.7-0.3,3.3-0.5,4.6-0.5
		C271.5,128.7,271.9,130.6,272.6,132.3z M169.7,54.4c0.1,0.3,0.2,0.7,0.3,1c1.7,3.6,3.4,7.6,5.3,11.8c11.7,26.7,26.3,60,51.3,69.5
		c6.6,2.5,12.9,3.4,18.4,4.2c6,0.9,11.2,1.6,16.3,4.1c0.2,0.1,0.7,0.4,0.6,0.4c1.7,2.5,2.3,6.4,2.7,10.2c0.8,6,1.8,13.4,8.7,17.1
		c0.9,0.5,1.6,1.3,1.4,1.6c-9.5,23.4-1.6,50.2,20.3,68.4c3.8,3.1,7.3,13.2-11,46c-3.6,6.4-2.8,14.1,1.9,19.7
		c3.4,4.1,8.3,6.3,13.4,6.3c2,0,4-0.3,5.9-1c13-4.6,24-11.3,36.9-22.4c8.9-7.7,14.6-15.8,19.6-22.9c5.3-7.6,9.8-14.1,17.7-19.9
		l2.4-2.1l0.8-2.4c0.6-1.8,1.5-4,2.3-6.3c6-15.7,15.9-41.8-2.3-51.3c-5.1-2.7-9-9.3-13.5-17c-3.8-6.4-8-13.7-13.9-19.9
		c-2.6-2.7-6.3-4.5-10.5-5.1c-4.6-0.6-8.4-2.4-12.1-4.2c-6.7-3.2-15.9-7.7-26.2,0.1c-0.7,0.5-2,1.3-3,1c-0.8-0.3-1.8-1.3-2.5-3.5
		c-1.9-6.4-5.8-10.5-12.5-12.8c0.9-2.8,0.8-5.7-0.4-8.2l1,0.2c7.7,1.1,13.4-0.5,17.1-4.7c3.8-4.4,4.6-10.7,2.3-18.7
		c0-0.1,0-0.5,0.2-0.8c16.1-21,28.9-30.1,54.8-38.9c2.6-0.9,4.8-2.4,6.6-4.2c39.4,29.6,65,76.6,65,129.5
		c0,89.4-72.7,162.1-162.1,162.1s-162.1-72.7-162.1-162.1C110.9,129,133.8,84.1,169.7,54.4z M349.9,486.4v8.5H196.3v-8.5H349.9z
		 M405.6,323.9c-76.9,70.6-196.9,68.6-271.4-5.9c-37-37-57.4-86.3-57.4-138.8c0-49.6,18.2-96.4,51.5-132.6l12.3,12.3
		c-29,31.8-46.8,74-46.8,120.3c0,98.8,80.4,179.2,179.2,179.2c46.3,0,88.5-17.8,120.3-46.8L405.6,323.9z"/>
</g>
<path class="st1" d="M510.4,296.1l-85.8-89.2c21.9-21.9,35.4-52.2,35.4-85.6C460,54.4,405.6,0,338.8,0S217.5,54.4,217.5,121.3
	s54.4,121.3,121.3,121.3c29.4,0,56.3-10.5,77.3-27.9l86,89.5c1.1,1.2,2.6,1.8,4.2,1.8c1.4,0,2.9-0.5,4-1.6
	C512.5,302,512.6,298.4,510.4,296.1z M338.8,231c-60.5,0-109.7-49.2-109.7-109.7S278.3,11.5,338.8,11.5s109.7,49.2,109.7,109.7
	S399.3,231,338.8,231z"/>
</svg>
