<?xml version="1.0" encoding="utf-8"?>
<!-- Generator: Adobe Illustrator 21.1.0, SVG Export Plug-In . SVG Version: 6.00 Build 0)  -->
<svg version="1.1" xmlns="http://www.w3.org/2000/svg" xmlns:xlink="http://www.w3.org/1999/xlink" x="0px" y="0px"
	 viewBox="0 0 512 512" style="enable-background:new 0 0 512 512;" xml:space="preserve">
<style type="text/css">
	.st0{fill:#FFFFFF;}
	.st1{fill:#FF7882;}
	.st2{fill:#FFEABB;}
	.st3{fill:#FFB243;}
	.st4{fill:#FFCC75;}
	.st5{fill:#3A3A3A;}
	.st6{fill:#00081E;}
	.st7{fill:#39FFA5;}
	.st8{fill:#6CFFF1;}
	.st9{fill:#27FF88;}
	.st10{fill:#0086FF;}
	.st11{fill:#00EFB0;}
	.st12{fill:#00E286;}
</style>
<g id="Слой_6">
	
		<rect x="63.9" y="96.5" transform="matrix(0.7071 -0.7071 0.7071 0.7071 -45.6191 110.1546)" class="st0" width="92.6" height="27.2"/>
	<path class="st1" d="M23.5,89l32.7,32.7l65.5-65.5L89,23.5c-4.6-4.6-10.8-7.1-17.3-7.1c-6.6,0-12.7,2.5-17.3,7.1L23.5,54.3
		C13.9,63.9,13.9,79.4,23.5,89z"/>
	<polygon class="st2" points="387.3,447 447.3,471.7 471.7,447.3 447,387.3 	"/>
	<path class="st3" d="M98.6,164.1l274.3,274.3l27-27L189.1,200.6c-3.2-3.2-3.2-8.4,0-11.6l-11.6-11.6c-1.6,1.6-3.7,2.4-5.8,2.4
		c-2.1,0-4.2-0.8-5.8-2.4l-40.4-40.4L98.6,164.1z"/>
	<path class="st4" d="M177.6,177.5l11.6,11.6c3.2-3.2,8.4-3.2,11.6,0l210.7,210.7l27-27L164.1,98.6l-27,27l40.4,40.4
		C180.7,169.2,180.7,174.4,177.6,177.5z"/>
	<polygon class="st5" points="463.7,478.5 488.8,488.8 478.5,463.7 	"/>
	<path class="st6" d="M11.9,100.5l355.2,355.2c0.2,0.2,0.4,0.4,0.6,0.5c0.2,0.1,0.3,0.3,0.5,0.4c0,0,0.1,0.1,0.1,0.1
		c0.2,0.1,0.4,0.3,0.7,0.4c0.3,0.1,0.5,0.3,0.8,0.4l130.9,53.9c1,0.4,2.1,0.6,3.1,0.6c2.1,0,4.2-0.8,5.8-2.4c2.3-2.3,3-5.8,1.8-8.9
		l-53.9-130.9c-0.2-0.5-0.5-1-0.8-1.5c0,0-0.1-0.1-0.1-0.1c-0.1-0.2-0.3-0.4-0.4-0.5c-0.2-0.2-0.4-0.4-0.5-0.6L100.5,11.9
		C92.8,4.2,82.6,0,71.6,0C60.7,0,50.4,4.2,42.8,11.9L11.9,42.7C-4,58.7-4,84.6,11.9,100.5z M387.3,447l59.7-59.7l24.7,60l-24.4,24.4
		L387.3,447z M372.9,438.3L98.6,164.1l27-27l40.4,40.4c1.6,1.6,3.7,2.4,5.8,2.4c2.1,0,4.2-0.8,5.8-2.4c3.2-3.2,3.2-8.4,0-11.6
		l-40.4-40.4l27-27l274.3,274.3l-27,27L200.7,189.1c-3.2-3.2-8.4-3.2-11.6,0c-3.2,3.2-3.2,8.4,0,11.6l210.7,210.7L372.9,438.3z
		 M87,152.5l-19.3-19.3l65.5-65.5L152.5,87L87,152.5z M488.8,488.8l-25.1-10.3l14.8-14.8L488.8,488.8z M23.5,89
		c-9.6-9.6-9.6-25.1,0-34.7l30.8-30.8c4.6-4.6,10.8-7.1,17.3-7.1c6.6,0,12.7,2.5,17.3,7.1l32.7,32.7l-65.5,65.5L23.5,89z"/>
</g>
<g id="Capa_1">
	
		<rect x="134" y="237" transform="matrix(0.7071 -0.7071 0.7071 0.7071 -134.1069 244.3693)" class="st7" width="187.9" height="94.1"/>
	<g>
		<g>
			<path d="M500.1,44c-0.3-0.4-0.6-0.8-1-1.1l-30.1-30.1c-0.4-0.4-0.7-0.7-1.1-1C449.2-4.7,420.8-3.8,403,14L289.8,127.2
				c0,0,0,0.1-0.1,0.1c-0.1,0.1-0.1,0.1-0.2,0.2L254,163c0,0,0,0,0,0L106.9,310.1l-35.6,35.6c0,0,0,0,0,0l-22.9,22.9
				c-9.7,9.7-11.7,24.4-5.9,36.1l-16.9,16.9c-7.4,7.4-9.8,18.1-7.1,27.7L2.9,464.8c-2.3,2.3-3.3,5.5-2.8,8.6l4,26.1
				c0.7,4.4,4.1,7.8,8.4,8.4l26.1,4c0.5,0.1,1,0.1,1.5,0.1c2.6,0,5.2-1,7.1-2.9l15.6-15.6c2.5,0.7,5.2,1.1,7.8,1.1
				c7.2,0,14.5-2.7,19.9-8.2l16.8-16.9c4.4,2.2,9.1,3.3,13.9,3.3c8,0,16.1-3.1,22.2-9.2l22.9-22.9l35.6-35.6c0,0,0,0,0,0L349,258
				l35.6-35.6c0.1-0.1,0.1-0.1,0.2-0.2c0,0,0.1,0,0.1-0.1L498,109C515.9,91.2,516.7,62.8,500.1,44z M477.8,50l-82.2,82.2
				c-2.1,2.1-4.9,3.3-7.9,3.3s-5.8-1.2-7.9-3.3c-4.4-4.4-4.4-11.5,0-15.8L462,34.2L477.8,50z M36.6,491.2l-13.7-2.1l-2.1-13.7
				l9.5-9.5l15.8,15.8L36.6,491.2z M76.2,472.1c-3.1,3.1-8.1,3.1-11.2,0.1L39.8,447c-3-3.1-3-8.2,0.1-11.3l15.7-15.7l36.4,36.4
				L76.2,472.1z M129.2,449.4c-4.4,4.4-11.6,4.3-15.9,0c0,0,0,0,0,0l-50.6-50.6c0,0,0,0-0.1-0.1c-4.3-4.4-4.3-11.5,0-15.9L78.4,367
				l66.6,66.6L129.2,449.4z M159.2,419.4l-66.6-66.6l21.4-21.4l66.6,66.6L159.2,419.4z M194.8,383.8l-66.6-66.6l132.9-132.9
				l66.6,66.6L194.8,383.8z M341.9,236.7l-66.6-66.6l21.4-21.4l66.6,66.6L341.9,236.7z M483.8,94.8L377.7,200.9l-66.6-66.6
				L417.2,28.2c7.8-7.8,19-9.9,28.7-6.4l-80.4,80.4c-12.2,12.2-12.2,32.1,0,44.3c5.9,5.9,13.8,9.7,22.1,9.2
				c8.2-0.5,16.2-3.3,22.1-9.2l80.4-80.4C493.7,75.8,491.6,87,483.8,94.8z"/>
		</g>
	</g>
	<g>
		<g>
			<path d="M257,290.5c-3.9-3.9-10.3-3.9-14.2,0l-52.2,52.2c-3.9,3.9-3.9,10.3,0,14.2c2,2,4.5,2.9,7.1,2.9s5.1-1,7.1-2.9l52.2-52.2
				C260.9,300.8,260.9,294.4,257,290.5z"/>
		</g>
	</g>
	<g>
		<g>
			<path d="M268.5,268.9c-12.9,0-13,20.1,0,20.1C281.4,289,281.5,268.9,268.5,268.9z"/>
		</g>
	</g>
	<g id="Слой_2">
		
			<rect x="121.5" y="328.3" transform="matrix(0.7071 -0.7071 0.7071 0.7071 -225.4436 206.5406)" class="st8" width="30.2" height="94.1"/>
	</g>
	<polygon class="st8" points="275.3,170.1 341.9,236.7 363.2,215.3 296.7,148.8 	"/>
	<g id="Слой_3">
	</g>
	<path class="st9" d="M311.7,134.9c-0.3-0.3-0.3-0.8,0-1.1L417.2,28.2c0,0,11.3-10.6,27.6-6.9c0.6,0.1,0.8,0.9,0.4,1.4l-79.7,79.5
		c0,0-19.7,18.8-1.3,42.9c5.8,7.6,17.1,10.9,23.4,10.5c10.5-0.6,21.5-8.2,22.1-9.1c0,0,0.1-0.1,0.1-0.1l80.4-80.4
		c0,0,6.8,15-6.4,28.6c-0.1,0.1-0.1,0.2-0.2,0.3L378.3,200.3c-0.3,0.3-0.8,0.3-1.1,0L311.7,134.9z"/>
	<g id="Слой_4">
	</g>
	<path class="st10" d="M378.8,117.4L378.8,117.4c-8.8,10.4,4.9,24.5,15.6,16l0.3-0.2L477.8,50L462,34.2L378.8,117.4z"/>
	<polygon class="st10" points="46.1,481.8 36.6,491.2 22.7,489 20.8,475.4 30.2,465.9 	"/>
	<path class="st11" d="M56.2,419.4l36.4,36.4l-17.9,18.6c-1.9,1.9-4.9,2-6.8,0.1l-28.1-27.9c-3.1-3.1-3.1-8.1,0-11.2L56.2,419.4z"/>
	<g id="Слой_5">
	</g>
	<path class="st12" d="M78.4,367l66.6,66.6l-16.1,16c-4.2,4.1-11.8,4.4-16.4-1.1l-50.2-50.3c-4.3-5.2-3.2-10.6-0.3-14.6L78.4,367z"
		/>
</g>
</svg>
