<?xml version="1.0" encoding="utf-8"?>
<!-- Generator: Adobe Illustrator 21.1.0, SVG Export Plug-In . SVG Version: 6.00 Build 0)  -->
<svg version="1.1" id="player" xmlns="http://www.w3.org/2000/svg" xmlns:xlink="http://www.w3.org/1999/xlink" x="0px" y="0px"
	 viewBox="0 0 131.8 253.1" style="enable-background:new 0 0 131.8 253.1;" xml:space="preserve">
<style type="text/css">
	.st0{fill:#C1986B;stroke:#000000;stroke-width:6;stroke-miterlimit:10;}
	.st1{opacity:0.99;fill:#1D89FF;stroke:#000000;stroke-width:6;stroke-linecap:round;stroke-linejoin:round;stroke-miterlimit:10;}
	.st2{fill:#FFFFFF;stroke:#000000;stroke-width:6;stroke-miterlimit:10;}
	.st3{fill:#FFC239;stroke:#000000;stroke-width:6;stroke-miterlimit:10;}
	.st4{fill:#FBFFAE;stroke:#000000;stroke-width:6;stroke-linecap:round;stroke-linejoin:round;stroke-miterlimit:10;}
	.st5{fill:#CC9F71;stroke:#000000;stroke-width:6;stroke-miterlimit:10;}
	.st6{fill:#C1986B;stroke:#000000;stroke-width:5;stroke-miterlimit:10;}
	.st7{fill:#353535;stroke:#000000;stroke-width:4;stroke-miterlimit:10;}
	.st8{fill:#AD8C6C;}
	.st9{fill:none;stroke:#000000;stroke-linecap:round;stroke-miterlimit:10;}
</style>
<g id="Слой_12">
	<g id="left_x5F_arm">
	</g>
	<g id="right_x5F_arm">
	</g>
</g>
<g id="foot_1_">
	<g id="foot">
	</g>
	<g id="socks">
	</g>
	<g id="shooes">
	</g>
</g>
<g id="Слой_19">
</g>
<g id="Слой_3">
	<g id="Слой_4">
	</g>
	<g id="Слой_21">
	</g>
	<g>
		<path class="st0" d="M116.7,179.9h-0.5c-6.6,0-12-5.4-12-12v-53.5c0-6.6,5.4-12,12-12h0.5c6.6,0,12,5.4,12,12v53.5
			C128.7,174.5,123.3,179.9,116.7,179.9z"/>
		<path class="st0" d="M15.5,179.9H15c-6.6,0-12-5.4-12-12v-53.5c0-6.6,5.4-12,12-12h0.5c6.6,0,12,5.4,12,12v53.5
			C27.5,174.5,22.1,179.9,15.5,179.9z"/>
		<path class="st1" d="M61.8,152.7h41.9l-0.1-39.6v10.9l25.1-9.3c0-39-42.1-39-42.1-39H65.8H44.2c0,0-41.2,0-41.3,39l25.1,9.3v-10.9
			v39.6h21"/>
		<rect x="28.1" y="197.4" class="st0" width="28.8" height="19.8"/>
		<rect x="75" y="197.4" class="st0" width="28.8" height="19.8"/>
		<rect x="28.1" y="217.2" class="st2" width="28.8" height="32.9"/>
		<rect x="75" y="217.2" class="st2" width="28.8" height="32.9"/>
		<path class="st3" d="M56.8,250.1H28.1c0-10.1,6.4-18.3,14.4-18.3C50.4,231.8,56.8,240,56.8,250.1z"/>
		<path class="st3" d="M103.7,250.1H75c0-10.1,6.4-18.3,14.4-18.3C97.3,231.8,103.7,240,103.7,250.1z"/>
		<path id="short" class="st4" d="M49.1,152.8l-21-0.1v44.8h28.7v-10.8l0.2-0.4c3.8-7.3,14.2-7.2,17.9,0.1l0,0v11.1h28.7v-44.8H61.8
			"/>
		<ellipse class="st5" cx="65.9" cy="75.2" rx="20.1" ry="11.1"/>
		<g>
			<path class="st6" d="M102.3,39.2c0,19.2-16,36.5-36.5,36.5c-20.2,0-36.5-16.3-36.5-36.5c0-5.4,1.2-10.6,3.3-15.3
				c0.9-1.9,1.9-3.7,3.1-5.4c4-5.8,9.6-10.3,16.2-13.1c1.6-0.6,3.2-1.2,4.9-1.6c2.9-0.7,5.9-1.1,9-1.1c0,0,3.8,0,7.3,0.7
				c2.5,0.5,6,1.9,9.8,4.2c7.6,4.6,16.1,12.8,18.7,24.5C102.1,34.3,102.3,36.7,102.3,39.2z"/>
		</g>
		<path class="st7" d="M82.9,7.6C79.2,13,72.9,17.8,65,20.5c-0.2,0.1-0.4,0.1-0.5,0.2c-11,3.7-21.9,2.5-28.7-2.3
			c4-5.8,9.6-10.3,16.2-13.1c1.6-0.6,3.2-1.2,4.9-1.6c2.9-0.7,5.9-1.1,9-1.1c0,0,3.8,0,7.3,0.7C75.6,3.9,79.1,5.3,82.9,7.6z"/>
		<circle class="st8" cx="65.9" cy="46.6" r="2.9"/>
		<circle cx="56.8" cy="36.3" r="3.1"/>
		<circle cx="73.5" cy="36.3" r="3.1"/>
		<path class="st9" d="M57.5,54.5c0,0,8.9,9.9,16.6,0"/>
		<path class="st7" d="M101.6,32.1c-1,0.1-1.9,0.1-2.9,0.1c-13.8,0-26-4.6-33.6-11.6c-5.1-4.7-8.1-10.5-8.2-16.7
			c2.9-0.7,5.9-1.1,9-1.1c0,0,3.8,0,7.3,0.7c2.5,0.5,6,1.9,9.8,4.2C90.5,12.2,99,20.4,101.6,32.1z"/>
	</g>
	<g id="Слой_22">
	</g>
	<g id="Слой_20">
	</g>
	<g id="Слой_23">
	</g>
</g>
<g id="Слой_18">
</g>
</svg>
