<?xml version="1.0" encoding="utf-8"?>
<!-- Generator: Adobe Illustrator 19.0.1, SVG Export Plug-In . SVG Version: 6.00 Build 0)  -->
<svg version="1.1" id="Слой_1" xmlns="http://www.w3.org/2000/svg" xmlns:xlink="http://www.w3.org/1999/xlink" x="0px" y="0px"
	 viewBox="0 0 467.7 467.7" style="enable-background:new 0 0 467.7 467.7;" xml:space="preserve">
<style type="text/css">
	.st0{fill:none;stroke:#9F5B4F;stroke-width:4;stroke-miterlimit:10;}
	.st1{fill:#005EA5;}
	.st2{fill:#B16F51;}
	.st3{fill:#BB8366;}
	.st4{fill:#9F5B4F;}
	.st5{fill:#FFFFFF;}
	.st6{fill:#006CCE;}
	.st7{fill:#1C5191;stroke:#154B8C;stroke-miterlimit:10;}
	.st8{fill:#3688FF;}
	.st9{fill:none;}
	.st10{fill:#EAEAEA;}
	.st11{fill:#A5A5A5;}
	.st12{fill:#3F3F3F;}
	.st13{fill:#DDDDDD;}
</style>
<ellipse cx="328.4" cy="143.7" rx="18.9" ry="46.5"/>
<path class="st0" d="M146.2,266.1"/>
<path class="st0" d="M103.9,280.9"/>
<path class="st1" d="M303.6,332.8H174.1c-3.2,0-5.8-2.6-5.8-5.8v-28.6c0-3.2,2.6-5.8,5.8-5.8h129.5c3.2,0,5.8,2.6,5.8,5.8V327
	C309.4,330.2,306.8,332.8,303.6,332.8z"/>
<g>
	<rect x="172.5" y="278.2" class="st2" width="131.2" height="109.3"/>
	<g>
		<circle class="st3" cx="325.5" cy="201" r="26"/>
		<circle class="st4" cx="325.5" cy="201" r="14.3"/>
	</g>
	<ellipse cx="139.4" cy="145.2" rx="18.9" ry="46.5"/>
	<g>
		<circle class="st3" cx="150.8" cy="201" r="26"/>
		<circle class="st4" cx="150.8" cy="201" r="14.3"/>
	</g>
	<path class="st3" d="M238.1,308.8L238.1,308.8c-48,0-87.3-39.3-87.3-87.3V142c0-48,39.3-87.3,87.3-87.3h0c48,0,87.3,39.3,87.3,87.3
		v79.4C325.5,269.5,286.2,308.8,238.1,308.8z"/>
	<path class="st2" d="M238.1,236.4L238.1,236.4c-14.7,0-26.6-11.9-26.6-26.6v-12c0-14.7,11.9-26.6,26.6-26.6h0
		c14.7,0,26.6,11.9,26.6,26.6v12C264.8,224.4,252.8,236.4,238.1,236.4z"/>
	<g>
		<path class="st5" d="M205,158.3h-36.3c-1.2,2.5-1.8,5.4-1.8,8.3c0,11,9,20,20,20s20-9,20-20C206.8,163.7,206.1,160.8,205,158.3z
			 M186.8,171.1c-2.5,0-4.5-2-4.5-4.5s2-4.5,4.5-4.5s4.5,2,4.5,4.5S189.3,171.1,186.8,171.1z"/>
		<circle cx="186.8" cy="166.6" r="4.5"/>
	</g>
	<g>
		<path class="st5" d="M307.6,158.3h-36.3c-1.2,2.5-1.8,5.4-1.8,8.3c0,11,9,20,20,20s20-9,20-20
			C309.5,163.7,308.8,160.8,307.6,158.3z M289.5,171.1c-2.5,0-4.5-2-4.5-4.5s2-4.5,4.5-4.5s4.5,2,4.5,4.5S291.9,171.1,289.5,171.1z"
			/>
		<circle cx="289.5" cy="166.6" r="4.5"/>
	</g>
	<path class="st0" d="M274.8,250.9c0,14.9-20.4,27-45.7,27"/>
	<path d="M206.3,143.7h-30c-6.6,0-12-5.4-12-12V131c0-6.6,5.4-12,12-12h30c6.6,0,12,5.4,12,12v0.7
		C218.3,138.3,212.9,143.7,206.3,143.7z"/>
	<path d="M297.5,143.7h-30c-6.6,0-12-5.4-12-12V131c0-6.6,5.4-12,12-12h30c6.6,0,12,5.4,12,12v0.7
		C309.5,138.3,304.1,143.7,297.5,143.7z"/>
	<circle cx="199.4" cy="56.7" r="56.1"/>
	<circle cx="160.6" cy="76.5" r="40.2"/>
	<circle cx="246.4" cy="58.7" r="44.7"/>
	<ellipse cx="282.5" cy="64.6" rx="30.9" ry="38.8"/>
	<circle cx="309.5" cy="81.1" r="29.7"/>
</g>
<path class="st6" d="M163.4,320.3C39.9,392.1,40.4,467.7,40.4,467.7h197.7V366.4L163.4,320.3z"/>
<path class="st6" d="M312.1,320.3C435.6,392.1,435,467.7,435,467.7H237.3V366.4L312.1,320.3z"/>
<line class="st7" x1="238.2" y1="365.9" x2="238.2" y2="467.8"/>
<path class="st8" d="M238.2,366l48.4,90.8l33.5-108.9c0,0-9.5-60-16.3-62v6.7c2.5,5.4,7.5,13.9,0,22.1c-0.4,0.4-0.8,0.8-1.2,1.2
	c-10.2,9.6-39.4,31.5-54.7,42.9C242.1,363.1,238.2,366,238.2,366z"/>
<path class="st8" d="M238.1,366l-48.4,90.8l-33.5-108.9c0,0,9.5-60,16.3-62v6.7c-2.5,5.4-7.5,13.9,0,22.1c0.4,0.4,0.8,0.8,1.2,1.2
	c10.2,9.6,39.4,31.5,54.7,42.9C234.3,363.1,238.1,366,238.1,366z"/>
<line class="st9" x1="279.5" y1="-365" x2="279.5" y2="-57"/>
<line class="st9" x1="280.3" y1="-365" x2="280.3" y2="-57"/>
<g id="Пуговица">
	<circle class="st10" cx="237.9" cy="416.6" r="13.7"/>
	<circle class="st11" cx="237.9" cy="416.6" r="10.1"/>
	<ellipse class="st12" cx="233.8" cy="412.5" rx="3.8" ry="3.9"/>
	<ellipse class="st12" cx="242" cy="412.5" rx="3.8" ry="3.9"/>
	<ellipse class="st12" cx="233.8" cy="420.7" rx="3.8" ry="3.9"/>
	<ellipse class="st12" cx="242" cy="420.7" rx="3.8" ry="3.9"/>
	<g>
		<path class="st13" d="M233.8,423.1L233.8,423.1c-0.2,0-0.3-0.1-0.3-0.3v-12.4c0-0.2,0.1-0.3,0.3-0.3l0,0c0.2,0,0.3,0.1,0.3,0.3
			v12.4C234.2,423,234,423.1,233.8,423.1z"/>
		<path class="st13" d="M235.4,423.1L235.4,423.1c-0.2,0-0.3-0.1-0.3-0.3v-12.4c0-0.2,0.1-0.3,0.3-0.3l0,0c0.2,0,0.3,0.1,0.3,0.3
			v12.4C235.7,423,235.6,423.1,235.4,423.1z"/>
		<path class="st13" d="M232.2,423.1L232.2,423.1c-0.2,0-0.3-0.1-0.3-0.3v-12.4c0-0.2,0.1-0.3,0.3-0.3l0,0c0.2,0,0.3,0.1,0.3,0.3
			v12.4C232.6,423,232.4,423.1,232.2,423.1z"/>
	</g>
	<g>
		<path class="st13" d="M242,422.9L242,422.9c-0.2,0-0.3-0.1-0.3-0.3v-12.4c0-0.2,0.1-0.3,0.3-0.3l0,0c0.2,0,0.3,0.1,0.3,0.3v12.4
			C242.3,422.7,242.2,422.9,242,422.9z"/>
		<path class="st13" d="M243.6,422.9L243.6,422.9c-0.2,0-0.3-0.1-0.3-0.3v-12.4c0-0.2,0.1-0.3,0.3-0.3l0,0c0.2,0,0.3,0.1,0.3,0.3
			v12.4C243.9,422.7,243.8,422.9,243.6,422.9z"/>
		<path class="st13" d="M240.4,422.9L240.4,422.9c-0.2,0-0.3-0.1-0.3-0.3v-12.4c0-0.2,0.1-0.3,0.3-0.3l0,0c0.2,0,0.3,0.1,0.3,0.3
			v12.4C240.8,422.7,240.6,422.9,240.4,422.9z"/>
	</g>
</g>
<line class="st9" x1="74.1" y1="232.4" x2="74.1" y2="352.9"/>
<g id="Пуговица_2_">
	<path class="st10" d="M200.4,427.1c-1.9,6.7-6.6,11.4-10.6,10.4c-4-1-5.7-7.2-3.9-14s6.6-11.4,10.6-10.4
		C200.6,414.1,202.3,420.4,200.4,427.1z"/>
	<path class="st11" d="M198.5,426.7c-1.4,5-4.9,8.4-7.9,7.7c-3-0.7-4.3-5.4-2.9-10.3c1.4-5,4.9-8.4,7.9-7.7
		C198.6,417,199.9,421.7,198.5,426.7z"/>
	<path class="st12" d="M194,421.7c-0.5,1.9-1.9,3.2-3,2.9c-1.1-0.3-1.6-2-1.1-3.9c0.5-1.9,1.9-3.2,3-2.9
		C194.1,418,194.6,419.8,194,421.7z"/>
	<path class="st12" d="M194.4,421.7c-0.5,1.9-0.1,3.7,1.1,3.9c1.1,0.3,2.4-1,3-2.9c0.5-1.9,0.1-3.7-1.1-3.9
		C196.2,418.5,194.9,419.8,194.4,421.7z"/>
	<path class="st12" d="M192,429c-0.5,1.9-1.9,3.2-3,2.9c-1.1-0.3-1.6-2-1.1-3.9s1.9-3.2,3-2.9C192.1,425.3,192.5,427.1,192,429z"/>
	<path class="st12" d="M192.3,429c-0.5,1.9-0.1,3.7,1.1,3.9c1.1,0.3,2.4-1,3-2.9c0.5-1.9,0.1-3.7-1.1-3.9
		C194.2,425.8,192.9,427.1,192.3,429z"/>
	<g>
		<path class="st13" d="M189.4,430.6L189.4,430.6c-0.1,0-0.1-0.2-0.1-0.3l3.1-11.1c0-0.2,0.2-0.3,0.3-0.2l0,0c0.1,0,0.1,0.2,0.1,0.3
			l-3.1,11.1C189.6,430.6,189.5,430.7,189.4,430.6z"/>
		<path class="st13" d="M190.2,430.8L190.2,430.8c-0.1,0-0.1-0.2-0.1-0.3l3.1-11.1c0-0.2,0.2-0.3,0.3-0.2l0,0c0.1,0,0.1,0.2,0.1,0.3
			l-3.1,11.1C190.4,430.8,190.3,430.9,190.2,430.8z"/>
		<path class="st13" d="M188.5,430.4L188.5,430.4c-0.1,0-0.1-0.2-0.1-0.3l3.1-11.1c0-0.2,0.2-0.3,0.3-0.2l0,0c0.1,0,0.1,0.2,0.1,0.3
			l-3.1,11.1C188.8,430.3,188.6,430.5,188.5,430.4z"/>
	</g>
	<g>
		<path class="st13" d="M193.8,431.5L193.8,431.5c-0.1,0-0.1-0.2-0.1-0.3l3.1-11.1c0-0.2,0.2-0.3,0.3-0.2l0,0c0.1,0,0.1,0.2,0.1,0.3
			l-3.1,11.1C194,431.4,193.9,431.5,193.8,431.5z"/>
		<path class="st13" d="M194.6,431.7L194.6,431.7c-0.1,0-0.1-0.2-0.1-0.3l3.1-11.1c0-0.2,0.2-0.3,0.3-0.2l0,0c0.1,0,0.1,0.2,0.1,0.3
			l-3.1,11.1C194.8,431.6,194.7,431.7,194.6,431.7z"/>
		<path class="st13" d="M193,431.3L193,431.3c-0.1,0-0.1-0.2-0.1-0.3l3.1-11.1c0-0.2,0.2-0.3,0.3-0.2l0,0c0.1,0,0.1,0.2,0.1,0.3
			l-3.1,11.1C193.2,431.2,193.1,431.3,193,431.3z"/>
	</g>
</g>
<g id="Пуговица_1_">
	<path class="st10" d="M275.6,427.6c1.9,6.7,6.6,11.4,10.6,10.4c4-1,5.7-7.2,3.9-14c-1.9-6.7-6.6-11.4-10.6-10.4
		C275.4,414.6,273.7,420.8,275.6,427.6z"/>
	<path class="st11" d="M277.5,427.1c1.4,5,4.9,8.4,7.9,7.7c3-0.7,4.3-5.4,2.9-10.3c-1.4-5-4.9-8.4-7.9-7.7S276.1,422.1,277.5,427.1z
		"/>
	<path class="st12" d="M282,422.1c0.5,1.9,1.9,3.2,3,2.9s1.6-2,1.1-3.9c-0.5-1.9-1.9-3.2-3-2.9S281.4,420.2,282,422.1z"/>
	<path class="st12" d="M281.6,422.2c0.5,1.9,0.1,3.7-1.1,3.9c-1.1,0.3-2.4-1-3-2.9c-0.5-1.9-0.1-3.7,1.1-3.9
		C279.8,418.9,281.1,420.3,281.6,422.2z"/>
	<path class="st12" d="M284,429.4c0.5,1.9,1.9,3.2,3,2.9s1.6-2,1.1-3.9c-0.5-1.9-1.9-3.2-3-2.9C283.9,425.7,283.5,427.5,284,429.4z"
		/>
	<path class="st12" d="M283.7,429.5c0.5,1.9,0.1,3.7-1.1,3.9c-1.1,0.3-2.4-1-3-2.9c-0.5-1.9-0.1-3.7,1.1-3.9
		C281.8,426.3,283.1,427.6,283.7,429.5z"/>
	<g>
		<path class="st13" d="M286.6,431.1L286.6,431.1c0.1,0,0.1-0.2,0.1-0.3l-3.1-11.1c0-0.2-0.2-0.3-0.3-0.2l0,0
			c-0.1,0-0.1,0.2-0.1,0.3l3.1,11.1C286.4,431,286.5,431.1,286.6,431.1z"/>
		<path class="st13" d="M285.8,431.3L285.8,431.3c0.1,0,0.1-0.2,0.1-0.3l-3.1-11.1c0-0.2-0.2-0.3-0.3-0.2l0,0
			c-0.1,0-0.1,0.2-0.1,0.3l3.1,11.1C285.6,431.2,285.7,431.3,285.8,431.3z"/>
		<path class="st13" d="M287.5,430.9L287.5,430.9c0.1,0,0.1-0.2,0.1-0.3l-3.1-11.1c0-0.2-0.2-0.3-0.3-0.2l0,0
			c-0.1,0-0.1,0.2-0.1,0.3l3.1,11.1C287.2,430.8,287.4,430.9,287.5,430.9z"/>
	</g>
	<g>
		<path class="st13" d="M282.2,431.9L282.2,431.9c0.1,0,0.1-0.2,0.1-0.3l-3.1-11.1c0-0.2-0.2-0.3-0.3-0.2l0,0
			c-0.1,0-0.1,0.2-0.1,0.3l3.1,11.1C282,431.8,282.1,432,282.2,431.9z"/>
		<path class="st13" d="M281.4,432.1L281.4,432.1c0.1,0,0.1-0.2,0.1-0.3l-3.1-11.1c0-0.2-0.2-0.3-0.3-0.2l0,0
			c-0.1,0-0.1,0.2-0.1,0.3l3.1,11.1C281.2,432,281.3,432.2,281.4,432.1z"/>
		<path class="st13" d="M283,431.7L283,431.7c0.1,0,0.1-0.2,0.1-0.3l-3.1-11.1c0-0.2-0.2-0.3-0.3-0.2l0,0c-0.1,0-0.1,0.2-0.1,0.3
			l3.1,11.1C282.8,431.6,282.9,431.7,283,431.7z"/>
	</g>
</g>
</svg>
