<?xml version="1.0" encoding="utf-8"?>
<!-- Generator: Adobe Illustrator 21.1.0, SVG Export Plug-In . SVG Version: 6.00 Build 0)  -->
<svg version="1.1" id="Слой_2" xmlns="http://www.w3.org/2000/svg" xmlns:xlink="http://www.w3.org/1999/xlink" x="0px" y="0px"
	 viewBox="0 0 720 336.7" style="enable-background:new 0 0 720 336.7;" xml:space="preserve">
<style type="text/css">
	.st0{fill:#0000FC;}
	.st1{fill:#EFEFEF;}
</style>
<g id="Слой_1">
	<path class="st0" d="M82.1,173.8L0.7,255.2l81.4,81.4l81.4-81.4L82.1,173.8z M82.1,302.5l-47.3-47.3L82.1,208l47.3,47.3L82.1,302.5
		z"/>
	<path class="st0" d="M267.6,173.8l-81.4,81.4l81.4,81.4l81.4-81.4L267.6,173.8z M267.6,302.5l-47.3-47.3l47.3-47.3l47.3,47.3
		L267.6,302.5z"/>
	<path class="st0" d="M453.1,173.8l-81.4,81.4l81.4,81.4l81.4-81.4L453.1,173.8z M453.1,302.5l-47.3-47.3l47.3-47.3l47.3,47.3
		L453.1,302.5z"/>
	<path class="st0" d="M638.6,173.2l-81.4,81.4l81.4,81.4l81.4-81.4L638.6,173.2z M638.6,301.9l-47.3-47.3l47.3-47.3l47.3,47.3
		L638.6,301.9z"/>
	<path class="st1" d="M81.7,0.6L0.3,82l81.4,81.4L163.2,82L81.7,0.6z M81.7,129.3L34.5,82l47.3-47.3L129,82L81.7,129.3z"/>
	<path class="st1" d="M267.2,0.6L185.8,82l81.4,81.4L348.7,82L267.2,0.6z M267.2,129.3L220,82l47.3-47.3L314.5,82L267.2,129.3z"/>
	<path class="st1" d="M452.7,0.6L371.3,82l81.4,81.4L534.2,82L452.7,0.6z M452.7,129.3L405.5,82l47.3-47.3L500,82L452.7,129.3z"/>
	<path class="st1" d="M638.2,0l-81.4,81.4l81.4,81.4l81.4-81.4L638.2,0z M638.2,128.7L591,81.4l47.3-47.3l47.3,47.3L638.2,128.7z"/>
</g>
</svg>
