<?xml version="1.0" encoding="utf-8"?>
<!-- Generator: Adobe Illustrator 21.1.0, SVG Export Plug-In . SVG Version: 6.00 Build 0)  -->
<svg version="1.1" id="Capa_1" xmlns="http://www.w3.org/2000/svg" xmlns:xlink="http://www.w3.org/1999/xlink" x="0px" y="0px"
	 viewBox="0 0 409.6 409.6" style="enable-background:new 0 0 409.6 409.6;" xml:space="preserve">
<style type="text/css">
	.st0{fill:#FFFFFF;}
	.st1{fill:#0000FF;}
	.st2{fill:#3BDAFF;}
	.st3{fill:#00E7FF;}
	.st4{fill:#92D3FF;}
</style>
<circle class="st0" cx="204.8" cy="204.8" r="198"/>
<path class="st1" d="M204.8,409.6C91.9,409.6,0,317.7,0,204.8S91.9,0,204.8,0s204.8,91.9,204.8,204.8S317.7,409.6,204.8,409.6z
	 M204.8,13.7C99.4,13.7,13.7,99.4,13.7,204.8s85.7,191.1,191.1,191.1s191.1-85.7,191.1-191.1S310.2,13.7,204.8,13.7z"/>
<circle class="st2" cx="204.8" cy="204.8" r="81.9"/>
<path class="st3" d="M34.1,211.6c-3.8,0-6.8-3.1-6.8-6.8c0-97.9,79.6-177.5,177.5-177.5c3.8,0,6.8,3.1,6.8,6.8s-3.1,6.8-6.8,6.8
	C114.5,41,41,114.5,41,204.8C41,208.6,37.9,211.6,34.1,211.6z"/>
<path class="st4" d="M214.5,85.9L330.5,202c5.3,5.3,5.3,14,0,19.3c-5.3,5.3-14,5.3-19.3,0l-92.7-92.7v171.8
	c0,7.5-6.1,13.7-13.7,13.7s-13.7-6.1-13.7-13.7V128.5l-92.7,92.7c-5.3,5.3-14,5.3-19.3,0c-2.7-2.7-4-6.2-4-9.7s1.3-7,4-9.7
	L195.1,85.9c2.6-2.6,6-4,9.7-4S211.9,83.4,214.5,85.9z"/>
<path class="st1" d="M204.8,320.9c-11.3,0-20.5-9.2-20.5-20.5V145l-81.1,81.1c-7.7,7.7-21.2,7.7-29,0c-3.9-3.9-6-9-6-14.5
	s2.1-10.6,6-14.5L190.3,81.1c7.7-7.7,21.2-7.7,29,0c0,0,0,0,0,0l116,116.1c8,8,8,21,0,29c-7.7,7.7-21.2,7.7-29,0L225.3,145v155.4
	C225.3,311.7,216.1,320.9,204.8,320.9z M191.1,121.7c0.9,0,1.8,0.2,2.6,0.5c2.6,1.1,4.2,3.5,4.2,6.3v171.8c0,3.8,3.1,6.8,6.8,6.8
	s6.8-3.1,6.8-6.8V128.5c0-2.8,1.7-5.2,4.2-6.3c2.6-1.1,5.5-0.5,7.4,1.5l92.7,92.7c2.6,2.6,7.1,2.6,9.7,0c2.7-2.7,2.7-7,0-9.7
	l-116-116c-2.6-2.6-7.1-2.6-9.7,0L83.9,206.8c-1.3,1.3-2,3-2,4.8s0.7,3.5,2,4.8c2.6,2.6,7.1,2.6,9.7,0l92.7-92.7
	C187.6,122.4,189.4,121.7,191.1,121.7z"/>
</svg>
